STARTFONT 2.3
FONT -FontForge-Righteous-Book-R-Normal--8-80-72-72-P-43-ISO10646-1
SIZE 8 72 72  2
FONTBOUNDINGBOX 10 10 -1 -2
COMMENT "Generated by fontforge, http://fontforge.sourceforge.net"
COMMENT "Copyright (c) 2011 by Brian J. Bonislawsky DBA Astigmatic (AOETI) (astigma@astigmatic.com), with ReservedFont Name "Righteous""
STARTPROPERTIES 40
FOUNDRY "FontForge"
FAMILY_NAME "Righteous"
WEIGHT_NAME "Book"
SLANT "R"
SETWIDTH_NAME "Normal"
ADD_STYLE_NAME ""
PIXEL_SIZE 8
POINT_SIZE 80
RESOLUTION_X 72
RESOLUTION_Y 72
SPACING "P"
AVERAGE_WIDTH 43
CHARSET_REGISTRY "ISO10646"
CHARSET_ENCODING "1"
FONTNAME_REGISTRY ""
CHARSET_COLLECTIONS "ISO8859-2 ISO8859-9 ISO8859-4 ISO10646-1"
BITS_PER_PIXEL 2
FONT_NAME "Righteous-Regular"
FACE_NAME "Righteous"
COPYRIGHT "Copyright (c) 2011 by Brian J. Bonislawsky DBA Astigmatic (AOETI) (astigma@astigmatic.com), with ReservedFont Name "Righteous""
FONT_VERSION "1.000"
FONT_ASCENT 6
FONT_DESCENT 2
UNDERLINE_POSITION -1
UNDERLINE_THICKNESS 1
X_HEIGHT 4
CAP_HEIGHT 5
RAW_ASCENT 799
RAW_DESCENT 200
NORM_SPACE 2
RELATIVE_WEIGHT 40
RELATIVE_SETWIDTH 50
SUPERSCRIPT_X 0
SUPERSCRIPT_Y 3
SUPERSCRIPT_SIZE 5
SUBSCRIPT_X 0
SUBSCRIPT_Y 1
SUBSCRIPT_SIZE 5
AVG_LOWERCASE_WIDTH 43
AVG_UPPERCASE_WIDTH 50
ENDPROPERTIES
CHARS 372
STARTCHAR space
ENCODING 32
SWIDTH 279 0
DWIDTH 2 0
BBX 1 1 0 0
BITMAP
00
ENDCHAR
STARTCHAR exclam
ENCODING 33
SWIDTH 274 0
DWIDTH 2 0
BBX 2 6 0 0
BITMAP
50
A0
60
60
50
60
ENDCHAR
STARTCHAR quotedbl
ENCODING 34
SWIDTH 409 0
DWIDTH 3 0
BBX 3 2 0 4
BITMAP
58
A8
ENDCHAR
STARTCHAR numbersign
ENCODING 35
SWIDTH 561 0
DWIDTH 4 0
BBX 4 4 0 1
BITMAP
16
7F
7A
6D
ENDCHAR
STARTCHAR dollar
ENCODING 36
SWIDTH 458 0
DWIDTH 4 0
BBX 4 6 0 0
BITMAP
10
28
A8
6D
B8
14
ENDCHAR
STARTCHAR percent
ENCODING 37
SWIDTH 685 0
DWIDTH 5 0
BBX 5 6 0 0
BITMAP
6140
9A00
AA00
0A80
1680
2280
ENDCHAR
STARTCHAR ampersand
ENCODING 38
SWIDTH 485 0
DWIDTH 4 0
BBX 4 6 0 0
BITMAP
04
6D
60
68
65
18
ENDCHAR
STARTCHAR quotesingle
ENCODING 39
SWIDTH 238 0
DWIDTH 2 0
BBX 2 2 0 4
BITMAP
50
90
ENDCHAR
STARTCHAR parenleft
ENCODING 40
SWIDTH 351 0
DWIDTH 3 0
BBX 3 8 0 -1
BITMAP
14
30
60
90
90
A0
70
24
ENDCHAR
STARTCHAR parenright
ENCODING 41
SWIDTH 351 0
DWIDTH 3 0
BBX 3 8 0 -1
BITMAP
50
70
34
24
24
34
70
90
ENDCHAR
STARTCHAR asterisk
ENCODING 42
SWIDTH 589 0
DWIDTH 5 0
BBX 4 5 0 2
BITMAP
08
6E
7E
3A
11
ENDCHAR
STARTCHAR plus
ENCODING 43
SWIDTH 485 0
DWIDTH 4 0
BBX 4 4 0 1
BITMAP
14
69
7D
14
ENDCHAR
STARTCHAR comma
ENCODING 44
SWIDTH 264 0
DWIDTH 2 0
BBX 2 2 0 -1
BITMAP
A0
50
ENDCHAR
STARTCHAR hyphen
ENCODING 45
SWIDTH 528 0
DWIDTH 4 0
BBX 4 2 0 2
BITMAP
55
6A
ENDCHAR
STARTCHAR period
ENCODING 46
SWIDTH 263 0
DWIDTH 2 0
BBX 2 1 0 0
BITMAP
A0
ENDCHAR
STARTCHAR slash
ENCODING 47
SWIDTH 490 0
DWIDTH 4 0
BBX 4 6 0 0
BITMAP
05
0D
18
24
30
A0
ENDCHAR
STARTCHAR zero
ENCODING 48
SWIDTH 642 0
DWIDTH 5 0
BBX 5 6 0 0
BITMAP
1900
7640
9180
9180
6280
2F00
ENDCHAR
STARTCHAR one
ENCODING 49
SWIDTH 317 0
DWIDTH 3 0
BBX 2 6 0 0
BITMAP
60
70
30
30
30
30
ENDCHAR
STARTCHAR two
ENCODING 50
SWIDTH 570 0
DWIDTH 5 0
BBX 4 6 0 0
BITMAP
69
6B
17
79
A0
BF
ENDCHAR
STARTCHAR three
ENCODING 51
SWIDTH 586 0
DWIDTH 5 0
BBX 5 6 0 0
BITMAP
6900
6B00
1740
2B00
0340
BE00
ENDCHAR
STARTCHAR four
ENCODING 52
SWIDTH 630 0
DWIDTH 5 0
BBX 5 6 0 0
BITMAP
2000
6300
6300
A740
BF80
0300
ENDCHAR
STARTCHAR five
ENCODING 53
SWIDTH 585 0
DWIDTH 5 0
BBX 5 6 0 0
BITMAP
6A00
7A00
A900
6B40
0240
BE00
ENDCHAR
STARTCHAR six
ENCODING 54
SWIDTH 615 0
DWIDTH 5 0
BBX 5 6 0 0
BITMAP
1800
3400
7F00
A280
A280
3F00
ENDCHAR
STARTCHAR seven
ENCODING 55
SWIDTH 516 0
DWIDTH 4 0
BBX 4 6 0 0
BITMAP
6A
6A
09
0C
18
24
ENDCHAR
STARTCHAR eight
ENCODING 56
SWIDTH 618 0
DWIDTH 5 0
BBX 5 6 0 0
BITMAP
1900
7740
7700
7B40
9280
7B40
ENDCHAR
STARTCHAR nine
ENCODING 57
SWIDTH 616 0
DWIDTH 5 0
BBX 5 6 0 0
BITMAP
1900
6740
9280
7B40
1B40
0A00
ENDCHAR
STARTCHAR colon
ENCODING 58
SWIDTH 276 0
DWIDTH 2 0
BBX 2 3 0 0
BITMAP
60
00
60
ENDCHAR
STARTCHAR semicolon
ENCODING 59
SWIDTH 276 0
DWIDTH 2 0
BBX 2 4 0 -1
BITMAP
60
00
60
20
ENDCHAR
STARTCHAR less
ENCODING 60
SWIDTH 478 0
DWIDTH 4 0
BBX 4 5 0 1
BITMAP
04
1D
74
74
1D
ENDCHAR
STARTCHAR equal
ENCODING 61
SWIDTH 539 0
DWIDTH 4 0
BBX 4 3 0 1
BITMAP
7E
69
69
ENDCHAR
STARTCHAR greater
ENCODING 62
SWIDTH 478 0
DWIDTH 4 0
BBX 4 5 0 1
BITMAP
10
74
1D
2C
70
ENDCHAR
STARTCHAR question
ENCODING 63
SWIDTH 603 0
DWIDTH 5 0
BBX 5 6 0 0
BITMAP
6900
6B40
0640
1E00
1400
2400
ENDCHAR
STARTCHAR at
ENCODING 64
SWIDTH 629 0
DWIDTH 5 0
BBX 5 5 0 0
BITMAP
0400
6B40
AA80
AA80
2800
ENDCHAR
STARTCHAR A
ENCODING 65
SWIDTH 673 0
DWIDTH 5 0
BBX 5 6 0 0
BITMAP
1900
7B80
A1C0
A5C0
BFC0
A1C0
ENDCHAR
STARTCHAR B
ENCODING 66
SWIDTH 666 0
DWIDTH 5 0
BBX 5 6 0 0
BITMAP
6A00
6A80
66C0
7B80
61C0
7F40
ENDCHAR
STARTCHAR C
ENCODING 67
SWIDTH 640 0
DWIDTH 5 0
BBX 5 6 0 0
BITMAP
1A40
7A80
A000
9000
7040
2F80
ENDCHAR
STARTCHAR D
ENCODING 68
SWIDTH 653 0
DWIDTH 5 0
BBX 5 6 0 0
BITMAP
6900
7B40
61C0
61C0
6680
7E00
ENDCHAR
STARTCHAR E
ENCODING 69
SWIDTH 578 0
DWIDTH 5 0
BBX 5 6 0 0
BITMAP
6A40
6A40
6500
7900
6000
7F40
ENDCHAR
STARTCHAR F
ENCODING 70
SWIDTH 562 0
DWIDTH 5 0
BBX 5 6 0 0
BITMAP
6A40
6A40
6400
7900
6000
6000
ENDCHAR
STARTCHAR G
ENCODING 71
SWIDTH 665 0
DWIDTH 5 0
BBX 5 6 0 0
BITMAP
1A40
7A80
A000
9080
70C0
2F80
ENDCHAR
STARTCHAR H
ENCODING 72
SWIDTH 689 0
DWIDTH 6 0
BBX 5 6 0 0
BITMAP
5080
60C0
65C0
7AC0
60C0
60C0
ENDCHAR
STARTCHAR I
ENCODING 73
SWIDTH 270 0
DWIDTH 2 0
BBX 2 6 0 0
BITMAP
50
60
60
60
60
60
ENDCHAR
STARTCHAR J
ENCODING 74
SWIDTH 416 0
DWIDTH 3 0
BBX 3 6 0 0
BITMAP
08
1C
1C
1C
28
E0
ENDCHAR
STARTCHAR K
ENCODING 75
SWIDTH 625 0
DWIDTH 5 0
BBX 5 6 0 0
BITMAP
5140
6340
6900
7E00
7740
6280
ENDCHAR
STARTCHAR L
ENCODING 76
SWIDTH 562 0
DWIDTH 5 0
BBX 5 6 0 0
BITMAP
5000
6000
6000
6000
6000
7F40
ENDCHAR
STARTCHAR M
ENCODING 77
SWIDTH 819 0
DWIDTH 7 0
BBX 6 6 0 0
BITMAP
1990
7BB0
A730
A730
A730
A730
ENDCHAR
STARTCHAR N
ENCODING 78
SWIDTH 689 0
DWIDTH 6 0
BBX 5 6 0 0
BITMAP
6080
74C0
7DC0
6AC0
63C0
61C0
ENDCHAR
STARTCHAR O
ENCODING 79
SWIDTH 777 0
DWIDTH 6 0
BBX 6 6 0 0
BITMAP
1A40
7AD0
A070
9070
70A0
2F80
ENDCHAR
STARTCHAR P
ENCODING 80
SWIDTH 642 0
DWIDTH 5 0
BBX 5 6 0 0
BITMAP
6900
6A80
61C0
6680
7E00
6000
ENDCHAR
STARTCHAR Q
ENCODING 81
SWIDTH 777 0
DWIDTH 6 0
BBX 6 7 0 -1
BITMAP
1A40
7AD0
A070
9070
70A0
2F80
0180
ENDCHAR
STARTCHAR R
ENCODING 82
SWIDTH 651 0
DWIDTH 5 0
BBX 5 6 0 0
BITMAP
6900
6A80
61C0
6680
7F00
6240
ENDCHAR
STARTCHAR S
ENCODING 83
SWIDTH 610 0
DWIDTH 5 0
BBX 5 6 0 0
BITMAP
2A40
AA40
A500
2B40
0280
BF40
ENDCHAR
STARTCHAR T
ENCODING 84
SWIDTH 578 0
DWIDTH 5 0
BBX 5 6 0 0
BITMAP
AA40
6E40
1C00
1C00
1C00
1C00
ENDCHAR
STARTCHAR U
ENCODING 85
SWIDTH 673 0
DWIDTH 5 0
BBX 5 6 0 0
BITMAP
5080
A1C0
A1C0
A1C0
7680
2E00
ENDCHAR
STARTCHAR V
ENCODING 86
SWIDTH 602 0
DWIDTH 5 0
BBX 5 6 0 0
BITMAP
9140
A240
7300
3A00
2D00
1C00
ENDCHAR
STARTCHAR W
ENCODING 87
SWIDTH 819 0
DWIDTH 7 0
BBX 6 6 0 0
BITMAP
5620
A730
A730
A730
6770
3EE0
ENDCHAR
STARTCHAR X
ENCODING 88
SWIDTH 608 0
DWIDTH 5 0
BBX 5 6 0 0
BITMAP
5140
7740
2E00
1D00
3B00
A280
ENDCHAR
STARTCHAR Y
ENCODING 89
SWIDTH 620 0
DWIDTH 5 0
BBX 5 6 0 0
BITMAP
5140
9180
A280
7F40
0C00
0C00
ENDCHAR
STARTCHAR Z
ENCODING 90
SWIDTH 586 0
DWIDTH 5 0
BBX 5 6 0 0
BITMAP
6A40
6B00
0D00
1C00
3400
BF80
ENDCHAR
STARTCHAR bracketleft
ENCODING 91
SWIDTH 380 0
DWIDTH 3 0
BBX 3 8 0 -1
BITMAP
54
B8
A0
A0
A0
A0
A4
68
ENDCHAR
STARTCHAR backslash
ENCODING 92
SWIDTH 490 0
DWIDTH 4 0
BBX 4 6 0 0
BITMAP
50
60
34
18
0C
09
ENDCHAR
STARTCHAR bracketright
ENCODING 93
SWIDTH 380 0
DWIDTH 3 0
BBX 3 8 0 -1
BITMAP
54
B8
28
28
28
28
68
A4
ENDCHAR
STARTCHAR asciicircum
ENCODING 94
SWIDTH 293 0
DWIDTH 2 0
BBX 2 2 0 4
BITMAP
10
A0
ENDCHAR
STARTCHAR underscore
ENCODING 95
SWIDTH 598 0
DWIDTH 5 0
BBX 4 2 0 -2
BITMAP
15
7F
ENDCHAR
STARTCHAR grave
ENCODING 96
SWIDTH 225 0
DWIDTH 2 0
BBX 2 2 0 4
BITMAP
40
A0
ENDCHAR
STARTCHAR a
ENCODING 97
SWIDTH 607 0
DWIDTH 5 0
BBX 5 5 0 0
BITMAP
0400
7B40
9240
A340
7E40
ENDCHAR
STARTCHAR b
ENCODING 98
SWIDTH 597 0
DWIDTH 5 0
BBX 5 6 0 0
BITMAP
9000
9400
BB00
A280
A240
2E00
ENDCHAR
STARTCHAR c
ENCODING 99
SWIDTH 521 0
DWIDTH 4 0
BBX 4 5 0 0
BITMAP
04
7A
90
A1
7E
ENDCHAR
STARTCHAR d
ENCODING 100
SWIDTH 606 0
DWIDTH 5 0
BBX 5 6 0 0
BITMAP
0240
0640
7B40
9240
A340
7E40
ENDCHAR
STARTCHAR e
ENCODING 101
SWIDTH 524 0
DWIDTH 4 0
BBX 4 5 0 0
BITMAP
04
7E
9D
B9
7E
ENDCHAR
STARTCHAR f
ENCODING 102
SWIDTH 395 0
DWIDTH 3 0
BBX 4 7 0 0
BITMAP
04
2D
74
BC
60
60
60
ENDCHAR
STARTCHAR g
ENCODING 103
SWIDTH 607 0
DWIDTH 5 0
BBX 5 7 0 -2
BITMAP
0400
7B40
9240
A340
7F40
0B00
0900
ENDCHAR
STARTCHAR h
ENCODING 104
SWIDTH 562 0
DWIDTH 5 0
BBX 4 6 0 0
BITMAP
90
A4
BE
A3
93
93
ENDCHAR
STARTCHAR i
ENCODING 105
SWIDTH 235 0
DWIDTH 2 0
BBX 2 6 0 0
BITMAP
A0
50
90
90
90
90
ENDCHAR
STARTCHAR j
ENCODING 106
SWIDTH 237 0
DWIDTH 2 0
BBX 3 8 -1 -2
BITMAP
28
14
28
28
28
24
B4
90
ENDCHAR
STARTCHAR k
ENCODING 107
SWIDTH 539 0
DWIDTH 4 0
BBX 4 6 0 0
BITMAP
90
90
96
AC
BD
A7
ENDCHAR
STARTCHAR l
ENCODING 108
SWIDTH 235 0
DWIDTH 2 0
BBX 2 6 0 0
BITMAP
90
90
90
90
90
90
ENDCHAR
STARTCHAR m
ENCODING 109
SWIDTH 762 0
DWIDTH 6 0
BBX 6 5 0 0
BITMAP
0040
BFD0
9660
9660
9660
ENDCHAR
STARTCHAR n
ENCODING 110
SWIDTH 562 0
DWIDTH 5 0
BBX 4 5 0 0
BITMAP
04
BE
A3
93
93
ENDCHAR
STARTCHAR o
ENCODING 111
SWIDTH 579 0
DWIDTH 5 0
BBX 5 5 0 0
BITMAP
0400
7B00
9240
A240
3E00
ENDCHAR
STARTCHAR p
ENCODING 112
SWIDTH 608 0
DWIDTH 5 0
BBX 5 7 0 -2
BITMAP
0400
BB40
A180
A280
BE00
9000
5000
ENDCHAR
STARTCHAR q
ENCODING 113
SWIDTH 607 0
DWIDTH 5 0
BBX 5 7 0 -2
BITMAP
0400
7B40
9240
A340
7F40
0240
0140
ENDCHAR
STARTCHAR r
ENCODING 114
SWIDTH 414 0
DWIDTH 3 0
BBX 4 4 0 0
BITMAP
BD
A0
90
90
ENDCHAR
STARTCHAR s
ENCODING 115
SWIDTH 523 0
DWIDTH 4 0
BBX 4 5 0 0
BITMAP
04
7E
A9
2B
BE
ENDCHAR
STARTCHAR t
ENCODING 116
SWIDTH 437 0
DWIDTH 4 0
BBX 4 6 0 0
BITMAP
60
64
FD
60
70
2D
ENDCHAR
STARTCHAR u
ENCODING 117
SWIDTH 562 0
DWIDTH 5 0
BBX 4 5 0 0
BITMAP
01
93
93
A3
3E
ENDCHAR
STARTCHAR v
ENCODING 118
SWIDTH 532 0
DWIDTH 4 0
BBX 4 5 0 0
BITMAP
41
97
6A
3D
2C
ENDCHAR
STARTCHAR w
ENCODING 119
SWIDTH 756 0
DWIDTH 6 0
BBX 6 4 0 0
BITMAP
9A60
9A60
9A60
7FD0
ENDCHAR
STARTCHAR x
ENCODING 120
SWIDTH 528 0
DWIDTH 4 0
BBX 4 5 0 0
BITMAP
41
AA
2C
3D
A7
ENDCHAR
STARTCHAR y
ENCODING 121
SWIDTH 562 0
DWIDTH 5 0
BBX 4 7 0 -2
BITMAP
01
93
93
A3
3F
1A
14
ENDCHAR
STARTCHAR z
ENCODING 122
SWIDTH 481 0
DWIDTH 4 0
BBX 4 5 0 0
BITMAP
14
BD
18
34
BE
ENDCHAR
STARTCHAR braceleft
ENCODING 123
SWIDTH 466 0
DWIDTH 4 0
BBX 4 8 0 -1
BITMAP
05
29
24
74
B0
24
28
19
ENDCHAR
STARTCHAR bar
ENCODING 124
SWIDTH 267 0
DWIDTH 2 0
BBX 2 8 0 -1
BITMAP
50
A0
A0
A0
A0
A0
A0
60
ENDCHAR
STARTCHAR braceright
ENCODING 125
SWIDTH 466 0
DWIDTH 4 0
BBX 4 8 0 -1
BITMAP
50
B4
28
19
1D
28
68
A4
ENDCHAR
STARTCHAR asciitilde
ENCODING 126
SWIDTH 451 0
DWIDTH 4 0
BBX 3 2 0 2
BITMAP
64
68
ENDCHAR
STARTCHAR nonbreakingspace
ENCODING 160
SWIDTH 279 0
DWIDTH 2 0
BBX 1 1 0 0
BITMAP
00
ENDCHAR
STARTCHAR exclamdown
ENCODING 161
SWIDTH 274 0
DWIDTH 2 0
BBX 2 6 0 -1
BITMAP
50
50
60
60
60
A0
ENDCHAR
STARTCHAR cent
ENCODING 162
SWIDTH 462 0
DWIDTH 4 0
BBX 3 6 0 0
BITMAP
14
28
A4
94
28
14
ENDCHAR
STARTCHAR sterling
ENCODING 163
SWIDTH 681 0
DWIDTH 5 0
BBX 5 6 0 0
BITMAP
0800
2800
3400
B800
3480
3F80
ENDCHAR
STARTCHAR currency
ENCODING 164
SWIDTH 454 0
DWIDTH 4 0
BBX 3 3 0 1
BITMAP
AC
58
68
ENDCHAR
STARTCHAR yen
ENCODING 165
SWIDTH 653 0
DWIDTH 5 0
BBX 5 6 0 0
BITMAP
5080
A1C0
A180
3F40
7F80
0D00
ENDCHAR
STARTCHAR brokenbar
ENCODING 166
SWIDTH 269 0
DWIDTH 2 0
BBX 2 8 0 -1
BITMAP
50
60
60
60
50
60
60
60
ENDCHAR
STARTCHAR section
ENCODING 167
SWIDTH 569 0
DWIDTH 5 0
BBX 4 6 0 0
BITMAP
2A
A9
7F
6B
2B
BE
ENDCHAR
STARTCHAR dieresis
ENCODING 168
SWIDTH 300 0
DWIDTH 2 0
BBX 3 1 0 4
BITMAP
94
ENDCHAR
STARTCHAR copyright
ENCODING 169
SWIDTH 655 0
DWIDTH 5 0
BBX 5 5 0 0
BITMAP
2A00
6580
A080
6A40
0500
ENDCHAR
STARTCHAR ordfeminine
ENCODING 170
SWIDTH 451 0
DWIDTH 4 0
BBX 3 4 0 2
BITMAP
28
58
68
68
ENDCHAR
STARTCHAR guillemotleft
ENCODING 171
SWIDTH 704 0
DWIDTH 6 0
BBX 5 4 0 0
BITMAP
1880
7740
7680
1880
ENDCHAR
STARTCHAR logicalnot
ENCODING 172
SWIDTH 529 0
DWIDTH 4 0
BBX 4 3 0 1
BITMAP
55
6A
01
ENDCHAR
STARTCHAR uni00AD
ENCODING 173
SWIDTH 418 0
DWIDTH 3 0
BBX 3 2 0 2
BITMAP
54
68
ENDCHAR
STARTCHAR registered
ENCODING 174
SWIDTH 439 0
DWIDTH 4 0
BBX 3 4 0 2
BITMAP
14
68
68
10
ENDCHAR
STARTCHAR macron
ENCODING 175
SWIDTH 247 0
DWIDTH 2 0
BBX 2 1 0 4
BITMAP
A0
ENDCHAR
STARTCHAR degree
ENCODING 176
SWIDTH 381 0
DWIDTH 3 0
BBX 3 3 0 3
BITMAP
10
A8
74
ENDCHAR
STARTCHAR plusminus
ENCODING 177
SWIDTH 516 0
DWIDTH 4 0
BBX 4 5 0 0
BITMAP
04
69
7D
14
BE
ENDCHAR
STARTCHAR twosuperior
ENCODING 178
SWIDTH 355 0
DWIDTH 3 0
BBX 3 3 0 3
BITMAP
60
74
A4
ENDCHAR
STARTCHAR threesuperior
ENCODING 179
SWIDTH 354 0
DWIDTH 3 0
BBX 3 3 0 3
BITMAP
60
74
74
ENDCHAR
STARTCHAR acute
ENCODING 180
SWIDTH 225 0
DWIDTH 2 0
BBX 2 2 0 4
BITMAP
10
90
ENDCHAR
STARTCHAR mu
ENCODING 181
SWIDTH 571 0
DWIDTH 5 0
BBX 5 6 0 -2
BITMAP
A340
A340
A340
BE40
9000
5000
ENDCHAR
STARTCHAR paragraph
ENCODING 182
SWIDTH 808 0
DWIDTH 6 0
BBX 6 6 0 0
BITMAP
1AA0
7BB0
9670
6670
2E70
0670
ENDCHAR
STARTCHAR periodcentered
ENCODING 183
SWIDTH 261 0
DWIDTH 2 0
BBX 2 2 0 2
BITMAP
50
60
ENDCHAR
STARTCHAR cedilla
ENCODING 184
SWIDTH 208 0
DWIDTH 2 0
BBX 2 2 0 -2
BITMAP
50
90
ENDCHAR
STARTCHAR onesuperior
ENCODING 185
SWIDTH 231 0
DWIDTH 2 0
BBX 2 3 0 3
BITMAP
50
50
50
ENDCHAR
STARTCHAR ordmasculine
ENCODING 186
SWIDTH 432 0
DWIDTH 3 0
BBX 3 4 0 2
BITMAP
24
58
68
68
ENDCHAR
STARTCHAR guillemotright
ENCODING 187
SWIDTH 703 0
DWIDTH 6 0
BBX 5 4 0 0
BITMAP
6200
29C0
2A80
5200
ENDCHAR
STARTCHAR onequarter
ENCODING 188
SWIDTH 648 0
DWIDTH 5 0
BBX 5 6 0 0
BITMAP
5100
6600
6800
1A40
2680
5680
ENDCHAR
STARTCHAR onehalf
ENCODING 189
SWIDTH 637 0
DWIDTH 5 0
BBX 5 6 0 0
BITMAP
5100
6600
6800
1A40
2280
5780
ENDCHAR
STARTCHAR threequarters
ENCODING 190
SWIDTH 708 0
DWIDTH 6 0
BBX 6 6 0 0
BITMAP
6140
7600
7A00
0A40
1690
2190
ENDCHAR
STARTCHAR questiondown
ENCODING 191
SWIDTH 602 0
DWIDTH 5 0
BBX 5 6 0 -1
BITMAP
0500
0500
0900
7800
9000
7F80
ENDCHAR
STARTCHAR Agrave
ENCODING 192
SWIDTH 673 0
DWIDTH 5 0
BBX 5 8 0 0
BITMAP
1000
1800
1900
7B80
A1C0
A5C0
BFC0
A1C0
ENDCHAR
STARTCHAR Aacute
ENCODING 193
SWIDTH 673 0
DWIDTH 5 0
BBX 5 8 0 0
BITMAP
0100
0600
1900
7B80
A1C0
A5C0
BFC0
A1C0
ENDCHAR
STARTCHAR Acircumflex
ENCODING 194
SWIDTH 673 0
DWIDTH 5 0
BBX 5 8 0 0
BITMAP
0400
0900
1900
7B80
A1C0
A5C0
BFC0
A1C0
ENDCHAR
STARTCHAR Atilde
ENCODING 195
SWIDTH 673 0
DWIDTH 5 0
BBX 5 8 0 0
BITMAP
0500
1A00
1900
7B80
A1C0
A5C0
BFC0
A1C0
ENDCHAR
STARTCHAR Adieresis
ENCODING 196
SWIDTH 673 0
DWIDTH 5 0
BBX 5 7 0 0
BITMAP
1600
1900
7B80
A1C0
A5C0
BFC0
A1C0
ENDCHAR
STARTCHAR Aring
ENCODING 197
SWIDTH 673 0
DWIDTH 5 0
BBX 5 7 0 0
BITMAP
0900
1E00
7B80
A1C0
A5C0
BFC0
A1C0
ENDCHAR
STARTCHAR AE
ENCODING 198
SWIDTH 988 0
DWIDTH 8 0
BBX 8 6 0 0
BITMAP
1AA9
7AE9
A1D4
A5E8
BFC0
A1FE
ENDCHAR
STARTCHAR Ccedilla
ENCODING 199
SWIDTH 640 0
DWIDTH 5 0
BBX 5 8 0 -2
BITMAP
1A40
7A80
A000
9000
7040
2F80
0900
0900
ENDCHAR
STARTCHAR Egrave
ENCODING 200
SWIDTH 578 0
DWIDTH 5 0
BBX 5 8 0 0
BITMAP
1000
1800
6A40
6A40
6500
7900
6000
7F40
ENDCHAR
STARTCHAR Eacute
ENCODING 201
SWIDTH 578 0
DWIDTH 5 0
BBX 5 8 0 0
BITMAP
0100
0900
6A40
6A40
6500
7900
6000
7F40
ENDCHAR
STARTCHAR Ecircumflex
ENCODING 202
SWIDTH 578 0
DWIDTH 5 0
BBX 5 8 0 0
BITMAP
0400
1900
6A40
6A40
6500
7900
6000
7F40
ENDCHAR
STARTCHAR Edieresis
ENCODING 203
SWIDTH 578 0
DWIDTH 5 0
BBX 5 7 0 0
BITMAP
2500
6A40
6A40
6500
7900
6000
7F40
ENDCHAR
STARTCHAR Igrave
ENCODING 204
SWIDTH 270 0
DWIDTH 2 0
BBX 2 8 0 0
BITMAP
40
90
50
60
60
60
60
60
ENDCHAR
STARTCHAR Iacute
ENCODING 205
SWIDTH 270 0
DWIDTH 2 0
BBX 2 8 0 0
BITMAP
10
20
50
60
60
60
60
60
ENDCHAR
STARTCHAR Icircumflex
ENCODING 206
SWIDTH 270 0
DWIDTH 2 0
BBX 2 8 0 0
BITMAP
10
A0
50
60
60
60
60
60
ENDCHAR
STARTCHAR Idieresis
ENCODING 207
SWIDTH 270 0
DWIDTH 2 0
BBX 2 7 0 0
BITMAP
90
50
60
60
60
60
60
ENDCHAR
STARTCHAR Eth
ENCODING 208
SWIDTH 672 0
DWIDTH 5 0
BBX 5 6 0 0
BITMAP
6900
7B80
B1C0
B4C0
6280
7E00
ENDCHAR
STARTCHAR Ntilde
ENCODING 209
SWIDTH 689 0
DWIDTH 6 0
BBX 5 8 0 0
BITMAP
0500
1A00
6080
74C0
7DC0
6AC0
63C0
61C0
ENDCHAR
STARTCHAR Ograve
ENCODING 210
SWIDTH 777 0
DWIDTH 6 0
BBX 6 8 0 0
BITMAP
0400
0900
1A40
7AD0
A070
9070
70A0
2F80
ENDCHAR
STARTCHAR Oacute
ENCODING 211
SWIDTH 777 0
DWIDTH 6 0
BBX 6 8 0 0
BITMAP
0100
0240
1A40
7AD0
A070
9070
70A0
2F80
ENDCHAR
STARTCHAR Ocircumflex
ENCODING 212
SWIDTH 777 0
DWIDTH 6 0
BBX 6 8 0 0
BITMAP
0100
0A00
1A40
7AD0
A070
9070
70A0
2F80
ENDCHAR
STARTCHAR Otilde
ENCODING 213
SWIDTH 777 0
DWIDTH 6 0
BBX 6 8 0 0
BITMAP
0540
0A40
1A40
7AD0
A070
9070
70A0
2F80
ENDCHAR
STARTCHAR Odieresis
ENCODING 214
SWIDTH 777 0
DWIDTH 6 0
BBX 6 7 0 0
BITMAP
0940
1A40
7AD0
A070
9070
70A0
2F80
ENDCHAR
STARTCHAR multiply
ENCODING 215
SWIDTH 479 0
DWIDTH 4 0
BBX 4 3 0 1
BITMAP
7D
7C
14
ENDCHAR
STARTCHAR Oslash
ENCODING 216
SWIDTH 777 0
DWIDTH 6 0
BBX 6 6 0 0
BITMAP
1A90
7AD0
A270
9970
78A0
3F80
ENDCHAR
STARTCHAR Ugrave
ENCODING 217
SWIDTH 673 0
DWIDTH 5 0
BBX 5 8 0 0
BITMAP
0400
1800
5080
A1C0
A1C0
A1C0
7680
2E00
ENDCHAR
STARTCHAR Uacute
ENCODING 218
SWIDTH 673 0
DWIDTH 5 0
BBX 5 8 0 0
BITMAP
0100
0600
5080
A1C0
A1C0
A1C0
7680
2E00
ENDCHAR
STARTCHAR Ucircumflex
ENCODING 219
SWIDTH 673 0
DWIDTH 5 0
BBX 5 8 0 0
BITMAP
0400
0900
5080
A1C0
A1C0
A1C0
7680
2E00
ENDCHAR
STARTCHAR Udieresis
ENCODING 220
SWIDTH 673 0
DWIDTH 5 0
BBX 5 7 0 0
BITMAP
1600
5080
A1C0
A1C0
A1C0
7680
2E00
ENDCHAR
STARTCHAR Yacute
ENCODING 221
SWIDTH 620 0
DWIDTH 5 0
BBX 5 8 0 0
BITMAP
0100
0900
5140
9180
A280
7F40
0C00
0C00
ENDCHAR
STARTCHAR Thorn
ENCODING 222
SWIDTH 637 0
DWIDTH 5 0
BBX 5 6 0 0
BITMAP
6000
7F40
61C0
61C0
7B80
6500
ENDCHAR
STARTCHAR germandbls
ENCODING 223
SWIDTH 813 0
DWIDTH 7 0
BBX 7 7 0 0
BITMAP
0500
2FC0
60C0
A780
6A90
62B4
67F0
ENDCHAR
STARTCHAR agrave
ENCODING 224
SWIDTH 607 0
DWIDTH 5 0
BBX 5 7 0 0
BITMAP
1000
2800
0400
7B40
9240
A340
7E40
ENDCHAR
STARTCHAR aacute
ENCODING 225
SWIDTH 607 0
DWIDTH 5 0
BBX 5 7 0 0
BITMAP
0400
0900
0400
7B40
9240
A340
7E40
ENDCHAR
STARTCHAR acircumflex
ENCODING 226
SWIDTH 607 0
DWIDTH 5 0
BBX 5 7 0 0
BITMAP
0400
1800
0400
7B40
9240
A340
7E40
ENDCHAR
STARTCHAR atilde
ENCODING 227
SWIDTH 607 0
DWIDTH 5 0
BBX 5 6 0 0
BITMAP
1500
2D00
7B40
9240
A340
7E40
ENDCHAR
STARTCHAR adieresis
ENCODING 228
SWIDTH 607 0
DWIDTH 5 0
BBX 5 5 0 0
BITMAP
2900
7B40
9240
A340
7E40
ENDCHAR
STARTCHAR aring
ENCODING 229
SWIDTH 607 0
DWIDTH 5 0
BBX 5 7 0 0
BITMAP
1800
1800
0400
7B40
9240
A340
7E40
ENDCHAR
STARTCHAR ae
ENCODING 230
SWIDTH 976 0
DWIDTH 8 0
BBX 8 5 0 0
BITMAP
0414
7BFD
92DC
A3F4
7EBD
ENDCHAR
STARTCHAR ccedilla
ENCODING 231
SWIDTH 521 0
DWIDTH 4 0
BBX 4 7 0 -2
BITMAP
04
7A
90
A1
7E
08
18
ENDCHAR
STARTCHAR egrave
ENCODING 232
SWIDTH 524 0
DWIDTH 4 0
BBX 4 7 0 0
BITMAP
10
24
04
7E
9D
B9
7E
ENDCHAR
STARTCHAR eacute
ENCODING 233
SWIDTH 524 0
DWIDTH 4 0
BBX 4 7 0 0
BITMAP
04
09
04
7E
9D
B9
7E
ENDCHAR
STARTCHAR ecircumflex
ENCODING 234
SWIDTH 524 0
DWIDTH 4 0
BBX 4 7 0 0
BITMAP
04
28
04
7E
9D
B9
7E
ENDCHAR
STARTCHAR edieresis
ENCODING 235
SWIDTH 524 0
DWIDTH 4 0
BBX 4 5 0 0
BITMAP
29
7E
9D
B9
7E
ENDCHAR
STARTCHAR igrave
ENCODING 236
SWIDTH 235 0
DWIDTH 2 0
BBX 2 7 0 0
BITMAP
40
80
00
90
90
90
90
ENDCHAR
STARTCHAR iacute
ENCODING 237
SWIDTH 235 0
DWIDTH 2 0
BBX 2 7 0 0
BITMAP
10
60
00
90
90
90
90
ENDCHAR
STARTCHAR icircumflex
ENCODING 238
SWIDTH 235 0
DWIDTH 2 0
BBX 2 6 0 0
BITMAP
40
A0
90
90
90
90
ENDCHAR
STARTCHAR idieresis
ENCODING 239
SWIDTH 235 0
DWIDTH 2 0
BBX 2 5 0 0
BITMAP
A0
90
90
90
90
ENDCHAR
STARTCHAR eth
ENCODING 240
SWIDTH 581 0
DWIDTH 5 0
BBX 5 6 0 0
BITMAP
2E40
1B00
7B40
9240
A240
3E00
ENDCHAR
STARTCHAR ntilde
ENCODING 241
SWIDTH 562 0
DWIDTH 5 0
BBX 4 6 0 0
BITMAP
15
2D
BE
A3
93
93
ENDCHAR
STARTCHAR ograve
ENCODING 242
SWIDTH 579 0
DWIDTH 5 0
BBX 5 7 0 0
BITMAP
1000
2400
0400
7B00
9240
A240
3E00
ENDCHAR
STARTCHAR oacute
ENCODING 243
SWIDTH 579 0
DWIDTH 5 0
BBX 5 7 0 0
BITMAP
0400
0900
0400
7B00
9240
A240
3E00
ENDCHAR
STARTCHAR ocircumflex
ENCODING 244
SWIDTH 579 0
DWIDTH 5 0
BBX 5 7 0 0
BITMAP
0400
1800
0400
7B00
9240
A240
3E00
ENDCHAR
STARTCHAR otilde
ENCODING 245
SWIDTH 579 0
DWIDTH 5 0
BBX 5 6 0 0
BITMAP
1500
2D00
7B00
9240
A240
3E00
ENDCHAR
STARTCHAR odieresis
ENCODING 246
SWIDTH 579 0
DWIDTH 5 0
BBX 5 5 0 0
BITMAP
2900
7B00
9240
A240
3E00
ENDCHAR
STARTCHAR divide
ENCODING 247
SWIDTH 494 0
DWIDTH 4 0
BBX 4 4 0 1
BITMAP
14
55
69
14
ENDCHAR
STARTCHAR oslash
ENCODING 248
SWIDTH 579 0
DWIDTH 5 0
BBX 5 5 0 0
BITMAP
0500
7F00
9B40
B640
7E00
ENDCHAR
STARTCHAR ugrave
ENCODING 249
SWIDTH 562 0
DWIDTH 5 0
BBX 4 6 0 0
BITMAP
10
25
93
93
A3
3E
ENDCHAR
STARTCHAR uacute
ENCODING 250
SWIDTH 562 0
DWIDTH 5 0
BBX 4 6 0 0
BITMAP
04
09
93
93
A3
3E
ENDCHAR
STARTCHAR ucircumflex
ENCODING 251
SWIDTH 562 0
DWIDTH 5 0
BBX 4 6 0 0
BITMAP
04
29
93
93
A3
3E
ENDCHAR
STARTCHAR udieresis
ENCODING 252
SWIDTH 562 0
DWIDTH 5 0
BBX 4 5 0 0
BITMAP
25
93
93
A3
3E
ENDCHAR
STARTCHAR yacute
ENCODING 253
SWIDTH 562 0
DWIDTH 5 0
BBX 4 8 0 -2
BITMAP
04
09
93
93
A3
3F
1A
14
ENDCHAR
STARTCHAR thorn
ENCODING 254
SWIDTH 608 0
DWIDTH 5 0
BBX 5 8 0 -2
BITMAP
9000
A400
BB40
A180
A280
BE00
9000
5000
ENDCHAR
STARTCHAR ydieresis
ENCODING 255
SWIDTH 562 0
DWIDTH 5 0
BBX 4 7 0 -2
BITMAP
25
93
93
A3
3F
1A
14
ENDCHAR
STARTCHAR Amacron
ENCODING 256
SWIDTH 673 0
DWIDTH 5 0
BBX 5 7 0 0
BITMAP
1900
1900
7B80
A1C0
A5C0
BFC0
A1C0
ENDCHAR
STARTCHAR amacron
ENCODING 257
SWIDTH 607 0
DWIDTH 5 0
BBX 5 5 0 0
BITMAP
2D00
7B40
9240
A340
7E40
ENDCHAR
STARTCHAR Abreve
ENCODING 258
SWIDTH 673 0
DWIDTH 5 0
BBX 5 8 0 0
BITMAP
0500
0900
1900
7B80
A1C0
A5C0
BFC0
A1C0
ENDCHAR
STARTCHAR abreve
ENCODING 259
SWIDTH 607 0
DWIDTH 5 0
BBX 5 6 0 0
BITMAP
1400
1C00
7B40
9240
A340
7E40
ENDCHAR
STARTCHAR Aogonek
ENCODING 260
SWIDTH 673 0
DWIDTH 5 0
BBX 5 8 0 -2
BITMAP
1900
7B80
A1C0
A5C0
BFC0
A1C0
0180
0040
ENDCHAR
STARTCHAR aogonek
ENCODING 261
SWIDTH 607 0
DWIDTH 5 0
BBX 5 7 0 -2
BITMAP
0400
7B40
9240
A340
7E40
0140
0040
ENDCHAR
STARTCHAR Cacute
ENCODING 262
SWIDTH 640 0
DWIDTH 5 0
BBX 5 8 0 0
BITMAP
0100
0600
1A40
7A80
A000
9000
7040
2F80
ENDCHAR
STARTCHAR cacute
ENCODING 263
SWIDTH 521 0
DWIDTH 4 0
BBX 4 7 0 0
BITMAP
04
09
04
7A
90
A1
7E
ENDCHAR
STARTCHAR Ccircumflex
ENCODING 264
SWIDTH 640 0
DWIDTH 5 0
BBX 5 8 0 0
BITMAP
0400
0A00
1A40
7A80
A000
9000
7040
2F80
ENDCHAR
STARTCHAR ccircumflex
ENCODING 265
SWIDTH 521 0
DWIDTH 4 0
BBX 4 7 0 0
BITMAP
04
18
04
7A
90
A1
7E
ENDCHAR
STARTCHAR Cdotaccent
ENCODING 266
SWIDTH 640 0
DWIDTH 5 0
BBX 5 7 0 0
BITMAP
0500
1A40
7A80
A000
9000
7040
2F80
ENDCHAR
STARTCHAR cdotaccent
ENCODING 267
SWIDTH 521 0
DWIDTH 4 0
BBX 4 5 0 0
BITMAP
18
7A
90
A1
7E
ENDCHAR
STARTCHAR Ccaron
ENCODING 268
SWIDTH 640 0
DWIDTH 5 0
BBX 5 8 0 0
BITMAP
0500
0600
1A40
7A80
A000
9000
7040
2F80
ENDCHAR
STARTCHAR ccaron
ENCODING 269
SWIDTH 521 0
DWIDTH 4 0
BBX 4 7 0 0
BITMAP
14
18
04
7A
90
A1
7E
ENDCHAR
STARTCHAR Dcaron
ENCODING 270
SWIDTH 653 0
DWIDTH 5 0
BBX 5 8 0 0
BITMAP
1500
0800
6900
7B40
61C0
61C0
6680
7E00
ENDCHAR
STARTCHAR dcaron
ENCODING 271
SWIDTH 740 0
DWIDTH 6 0
BBX 6 6 0 0
BITMAP
0250
0660
7B40
9240
A340
7E40
ENDCHAR
STARTCHAR Dcroat
ENCODING 272
SWIDTH 672 0
DWIDTH 5 0
BBX 5 6 0 0
BITMAP
6900
7B80
B1C0
B4C0
6280
7E00
ENDCHAR
STARTCHAR dcroat
ENCODING 273
SWIDTH 606 0
DWIDTH 5 0
BBX 5 6 0 0
BITMAP
0280
0680
7B40
9240
A340
7E40
ENDCHAR
STARTCHAR Emacron
ENCODING 274
SWIDTH 578 0
DWIDTH 5 0
BBX 5 7 0 0
BITMAP
1900
6A40
6A40
6500
7900
6000
7F40
ENDCHAR
STARTCHAR emacron
ENCODING 275
SWIDTH 524 0
DWIDTH 4 0
BBX 4 5 0 0
BITMAP
2D
7E
9D
B9
7E
ENDCHAR
STARTCHAR Ebreve
ENCODING 276
SWIDTH 578 0
DWIDTH 5 0
BBX 5 8 0 0
BITMAP
1400
1800
6A40
6A40
6500
7900
6000
7F40
ENDCHAR
STARTCHAR ebreve
ENCODING 277
SWIDTH 524 0
DWIDTH 4 0
BBX 4 6 0 0
BITMAP
14
1C
7E
9D
B9
7E
ENDCHAR
STARTCHAR Edotaccent
ENCODING 278
SWIDTH 578 0
DWIDTH 5 0
BBX 5 8 0 0
BITMAP
0400
0800
6A40
6A40
6500
7900
6000
7F40
ENDCHAR
STARTCHAR edotaccent
ENCODING 279
SWIDTH 524 0
DWIDTH 4 0
BBX 4 5 0 0
BITMAP
18
7E
9D
B9
7E
ENDCHAR
STARTCHAR Eogonek
ENCODING 280
SWIDTH 578 0
DWIDTH 5 0
BBX 5 8 0 -2
BITMAP
6A40
6A40
6500
7900
6000
7F40
0600
0100
ENDCHAR
STARTCHAR eogonek
ENCODING 281
SWIDTH 524 0
DWIDTH 4 0
BBX 4 7 0 -2
BITMAP
04
7E
9D
B9
7E
09
05
ENDCHAR
STARTCHAR Ecaron
ENCODING 282
SWIDTH 578 0
DWIDTH 5 0
BBX 5 8 0 0
BITMAP
1500
0800
6A40
6A40
6500
7900
6000
7F40
ENDCHAR
STARTCHAR ecaron
ENCODING 283
SWIDTH 524 0
DWIDTH 4 0
BBX 4 7 0 0
BITMAP
14
18
04
7E
9D
B9
7E
ENDCHAR
STARTCHAR Gcircumflex
ENCODING 284
SWIDTH 665 0
DWIDTH 5 0
BBX 5 8 0 0
BITMAP
0400
0A00
1A40
7A80
A000
9080
70C0
2F80
ENDCHAR
STARTCHAR gcircumflex
ENCODING 285
SWIDTH 607 0
DWIDTH 5 0
BBX 5 9 0 -2
BITMAP
0400
1800
0400
7B40
9240
A340
7F40
0B00
0900
ENDCHAR
STARTCHAR Gbreve
ENCODING 286
SWIDTH 665 0
DWIDTH 5 0
BBX 5 8 0 0
BITMAP
0500
0500
1A40
7A80
A000
9080
70C0
2F80
ENDCHAR
STARTCHAR gbreve
ENCODING 287
SWIDTH 607 0
DWIDTH 5 0
BBX 5 8 0 -2
BITMAP
1400
1C00
7B40
9240
A340
7F40
0B00
0900
ENDCHAR
STARTCHAR Gdotaccent
ENCODING 288
SWIDTH 665 0
DWIDTH 5 0
BBX 5 7 0 0
BITMAP
0500
1A40
7A80
A000
9080
70C0
2F80
ENDCHAR
STARTCHAR gdotaccent
ENCODING 289
SWIDTH 607 0
DWIDTH 5 0
BBX 5 7 0 -2
BITMAP
1800
7B40
9240
A340
7F40
0B00
0900
ENDCHAR
STARTCHAR Gcommaaccent
ENCODING 290
SWIDTH 665 0
DWIDTH 5 0
BBX 5 8 0 -2
BITMAP
1A40
7A80
A000
9080
70C0
2F80
0500
0500
ENDCHAR
STARTCHAR gcommaaccent
ENCODING 291
SWIDTH 607 0
DWIDTH 5 0
BBX 5 8 0 -2
BITMAP
0400
1800
7B40
9240
A340
7F40
0B00
0900
ENDCHAR
STARTCHAR Hcircumflex
ENCODING 292
SWIDTH 689 0
DWIDTH 6 0
BBX 5 8 0 0
BITMAP
0400
0A00
5080
60C0
65C0
7AC0
60C0
60C0
ENDCHAR
STARTCHAR hcircumflex
ENCODING 293
SWIDTH 562 0
DWIDTH 5 0
BBX 4 6 0 0
BITMAP
94
AE
BE
A3
93
93
ENDCHAR
STARTCHAR Hbar
ENCODING 294
SWIDTH 689 0
DWIDTH 6 0
BBX 6 6 0 0
BITMAP
5080
FFD0
AAC0
7AC0
60C0
60C0
ENDCHAR
STARTCHAR hbar
ENCODING 295
SWIDTH 562 0
DWIDTH 5 0
BBX 4 6 0 0
BITMAP
A0
A4
BE
A3
93
93
ENDCHAR
STARTCHAR Itilde
ENCODING 296
SWIDTH 270 0
DWIDTH 2 0
BBX 3 8 0 0
BITMAP
54
A4
50
60
60
60
60
60
ENDCHAR
STARTCHAR itilde
ENCODING 297
SWIDTH 235 0
DWIDTH 2 0
BBX 3 6 -1 0
BITMAP
14
68
24
24
24
24
ENDCHAR
STARTCHAR Imacron
ENCODING 298
SWIDTH 270 0
DWIDTH 2 0
BBX 2 7 0 0
BITMAP
A0
50
60
60
60
60
60
ENDCHAR
STARTCHAR imacron
ENCODING 299
SWIDTH 235 0
DWIDTH 2 0
BBX 2 5 0 0
BITMAP
A0
90
90
90
90
ENDCHAR
STARTCHAR Ibreve
ENCODING 300
SWIDTH 270 0
DWIDTH 2 0
BBX 2 8 0 0
BITMAP
50
60
50
60
60
60
60
60
ENDCHAR
STARTCHAR ibreve
ENCODING 301
SWIDTH 235 0
DWIDTH 2 0
BBX 2 6 0 0
BITMAP
50
A0
90
90
90
90
ENDCHAR
STARTCHAR Iogonek
ENCODING 302
SWIDTH 270 0
DWIDTH 2 0
BBX 2 8 0 -2
BITMAP
50
60
60
60
60
60
90
50
ENDCHAR
STARTCHAR iogonek
ENCODING 303
SWIDTH 235 0
DWIDTH 2 0
BBX 2 8 0 -2
BITMAP
A0
50
90
90
90
90
90
50
ENDCHAR
STARTCHAR Idotaccent
ENCODING 304
SWIDTH 270 0
DWIDTH 2 0
BBX 2 7 0 0
BITMAP
50
50
60
60
60
60
60
ENDCHAR
STARTCHAR dotlessi
ENCODING 305
SWIDTH 235 0
DWIDTH 2 0
BBX 2 4 0 0
BITMAP
90
90
90
90
ENDCHAR
STARTCHAR IJ
ENCODING 306
SWIDTH 687 0
DWIDTH 6 0
BBX 5 6 0 0
BITMAP
5080
60C0
60C0
60C0
61C0
6B40
ENDCHAR
STARTCHAR ij
ENCODING 307
SWIDTH 474 0
DWIDTH 4 0
BBX 4 8 0 -2
BITMAP
A9
55
99
99
99
99
2C
64
ENDCHAR
STARTCHAR Jcircumflex
ENCODING 308
SWIDTH 416 0
DWIDTH 3 0
BBX 3 8 0 0
BITMAP
04
18
08
1C
1C
1C
28
E0
ENDCHAR
STARTCHAR jcircumflex
ENCODING 309
SWIDTH 237 0
DWIDTH 2 0
BBX 3 8 -1 -2
BITMAP
10
28
28
28
28
24
B4
90
ENDCHAR
STARTCHAR Kcommaaccent
ENCODING 310
SWIDTH 625 0
DWIDTH 5 0
BBX 5 8 0 -2
BITMAP
5140
6340
6900
7E00
7740
6280
0800
0800
ENDCHAR
STARTCHAR kcommaaccent
ENCODING 311
SWIDTH 539 0
DWIDTH 4 0
BBX 4 8 0 -2
BITMAP
90
90
96
AC
BD
A7
14
08
ENDCHAR
STARTCHAR kgreenlandic
ENCODING 312
SWIDTH 539 0
DWIDTH 4 0
BBX 4 4 0 0
BITMAP
96
AC
BD
A7
ENDCHAR
STARTCHAR Lacute
ENCODING 313
SWIDTH 562 0
DWIDTH 5 0
BBX 5 8 0 0
BITMAP
0400
0800
5000
6000
6000
6000
6000
7F40
ENDCHAR
STARTCHAR lacute
ENCODING 314
SWIDTH 235 0
DWIDTH 2 0
BBX 3 8 0 0
BITMAP
10
24
90
90
90
90
90
90
ENDCHAR
STARTCHAR Lcommaaccent
ENCODING 315
SWIDTH 562 0
DWIDTH 5 0
BBX 5 8 0 -2
BITMAP
5000
6000
6000
6000
6000
7F40
0400
0800
ENDCHAR
STARTCHAR lcommaaccent
ENCODING 316
SWIDTH 235 0
DWIDTH 2 0
BBX 2 8 0 -2
BITMAP
90
90
90
90
90
90
50
50
ENDCHAR
STARTCHAR Lcaron
ENCODING 317
SWIDTH 562 0
DWIDTH 5 0
BBX 5 6 0 0
BITMAP
5400
6800
6000
6000
6000
7F40
ENDCHAR
STARTCHAR lcaron
ENCODING 318
SWIDTH 369 0
DWIDTH 3 0
BBX 3 6 0 0
BITMAP
94
A8
90
90
90
90
ENDCHAR
STARTCHAR Ldot
ENCODING 319
SWIDTH 745 0
DWIDTH 6 0
BBX 6 6 0 0
BITMAP
5000
6000
6050
6090
6000
7F40
ENDCHAR
STARTCHAR ldotaccent
ENCODING 320
SWIDTH 463 0
DWIDTH 4 0
BBX 4 6 0 0
BITMAP
90
90
94
99
90
90
ENDCHAR
STARTCHAR Lslash
ENCODING 321
SWIDTH 585 0
DWIDTH 5 0
BBX 5 6 0 0
BITMAP
6000
6000
7400
F000
7000
7F80
ENDCHAR
STARTCHAR lslash
ENCODING 322
SWIDTH 319 0
DWIDTH 3 0
BBX 3 6 0 0
BITMAP
60
60
74
F0
60
60
ENDCHAR
STARTCHAR Nacute
ENCODING 323
SWIDTH 689 0
DWIDTH 6 0
BBX 5 8 0 0
BITMAP
0100
0600
6080
74C0
7DC0
6AC0
63C0
61C0
ENDCHAR
STARTCHAR nacute
ENCODING 324
SWIDTH 562 0
DWIDTH 5 0
BBX 4 7 0 0
BITMAP
01
09
04
BE
A3
93
93
ENDCHAR
STARTCHAR Ncommaaccent
ENCODING 325
SWIDTH 689 0
DWIDTH 6 0
BBX 5 8 0 -2
BITMAP
6080
74C0
7DC0
6AC0
63C0
61C0
0400
0400
ENDCHAR
STARTCHAR ncommaaccent
ENCODING 326
SWIDTH 562 0
DWIDTH 5 0
BBX 4 7 0 -2
BITMAP
04
BE
A3
93
93
04
08
ENDCHAR
STARTCHAR Ncaron
ENCODING 327
SWIDTH 689 0
DWIDTH 6 0
BBX 5 8 0 0
BITMAP
0500
0900
6080
74C0
7DC0
6AC0
63C0
61C0
ENDCHAR
STARTCHAR ncaron
ENCODING 328
SWIDTH 562 0
DWIDTH 5 0
BBX 4 6 0 0
BITMAP
14
18
BE
A3
93
93
ENDCHAR
STARTCHAR napostrophe
ENCODING 329
SWIDTH 694 0
DWIDTH 6 0
BBX 6 6 0 0
BITMAP
4000
8100
2F80
28C0
28D0
28D0
ENDCHAR
STARTCHAR Eng
ENCODING 330
SWIDTH 689 0
DWIDTH 6 0
BBX 5 8 0 -2
BITMAP
6080
74C0
7DC0
6AC0
63C0
62C0
0680
0500
ENDCHAR
STARTCHAR eng
ENCODING 331
SWIDTH 562 0
DWIDTH 5 0
BBX 4 7 0 -2
BITMAP
04
BE
A3
93
93
1A
14
ENDCHAR
STARTCHAR Omacron
ENCODING 332
SWIDTH 777 0
DWIDTH 6 0
BBX 6 7 0 0
BITMAP
0A00
1A40
7AD0
A070
9070
70A0
2F80
ENDCHAR
STARTCHAR omacron
ENCODING 333
SWIDTH 579 0
DWIDTH 5 0
BBX 5 5 0 0
BITMAP
2D00
7B00
9240
A240
3E00
ENDCHAR
STARTCHAR Obreve
ENCODING 334
SWIDTH 777 0
DWIDTH 6 0
BBX 6 8 0 0
BITMAP
0500
0600
1A40
7AD0
A070
9070
70A0
2F80
ENDCHAR
STARTCHAR obreve
ENCODING 335
SWIDTH 579 0
DWIDTH 5 0
BBX 5 6 0 0
BITMAP
1400
1C00
7B00
9240
A240
3E00
ENDCHAR
STARTCHAR Ohungarumlaut
ENCODING 336
SWIDTH 777 0
DWIDTH 6 0
BBX 6 8 0 0
BITMAP
0580
0940
1A40
7AD0
A070
9070
70A0
2F80
ENDCHAR
STARTCHAR ohungarumlaut
ENCODING 337
SWIDTH 579 0
DWIDTH 5 0
BBX 5 6 0 0
BITMAP
1A00
2A00
7B00
9240
A240
3E00
ENDCHAR
STARTCHAR OE
ENCODING 338
SWIDTH 1125 0
DWIDTH 9 0
BBX 9 6 0 0
BITMAP
1A6A40
7AFA40
A07500
907A00
70B000
2FBF80
ENDCHAR
STARTCHAR oe
ENCODING 339
SWIDTH 924 0
DWIDTH 7 0
BBX 7 5 0 0
BITMAP
0410
7BFC
92A8
A2E4
3EB8
ENDCHAR
STARTCHAR Racute
ENCODING 340
SWIDTH 651 0
DWIDTH 5 0
BBX 5 8 0 0
BITMAP
0100
0900
6900
6A80
61C0
6680
7F00
6240
ENDCHAR
STARTCHAR racute
ENCODING 341
SWIDTH 414 0
DWIDTH 3 0
BBX 4 7 0 0
BITMAP
04
18
00
BD
A0
90
90
ENDCHAR
STARTCHAR Rcommaaccent
ENCODING 342
SWIDTH 651 0
DWIDTH 5 0
BBX 5 8 0 -2
BITMAP
6900
6A80
61C0
6680
7F00
6240
0400
0800
ENDCHAR
STARTCHAR rcommaaccent
ENCODING 343
SWIDTH 414 0
DWIDTH 3 0
BBX 4 6 0 -2
BITMAP
BD
A0
90
90
50
50
ENDCHAR
STARTCHAR Rcaron
ENCODING 344
SWIDTH 651 0
DWIDTH 5 0
BBX 5 8 0 0
BITMAP
1500
0800
6900
6A80
61C0
6680
7F00
6240
ENDCHAR
STARTCHAR rcaron
ENCODING 345
SWIDTH 414 0
DWIDTH 3 0
BBX 4 6 0 0
BITMAP
14
24
BD
A0
90
90
ENDCHAR
STARTCHAR Sacute
ENCODING 346
SWIDTH 610 0
DWIDTH 5 0
BBX 5 8 0 0
BITMAP
0100
0900
2A40
AA40
A500
2B40
0280
BF40
ENDCHAR
STARTCHAR sacute
ENCODING 347
SWIDTH 523 0
DWIDTH 4 0
BBX 4 7 0 0
BITMAP
04
09
04
7E
A9
2B
BE
ENDCHAR
STARTCHAR Scircumflex
ENCODING 348
SWIDTH 610 0
DWIDTH 5 0
BBX 5 8 0 0
BITMAP
0400
1900
2A40
AA40
A500
2B40
0280
BF40
ENDCHAR
STARTCHAR scircumflex
ENCODING 349
SWIDTH 523 0
DWIDTH 4 0
BBX 4 6 0 0
BITMAP
04
2C
7E
A9
2B
BE
ENDCHAR
STARTCHAR Scedilla
ENCODING 350
SWIDTH 610 0
DWIDTH 5 0
BBX 5 8 0 -2
BITMAP
2A40
AA40
A500
2B40
0280
BF40
0800
1800
ENDCHAR
STARTCHAR scedilla
ENCODING 351
SWIDTH 523 0
DWIDTH 4 0
BBX 4 7 0 -2
BITMAP
04
7E
A9
2B
BE
08
18
ENDCHAR
STARTCHAR Scaron
ENCODING 352
SWIDTH 610 0
DWIDTH 5 0
BBX 5 8 0 0
BITMAP
1500
0800
2A40
AA40
A500
2B40
0280
BF40
ENDCHAR
STARTCHAR scaron
ENCODING 353
SWIDTH 523 0
DWIDTH 4 0
BBX 4 6 0 0
BITMAP
14
18
7E
A9
2B
BE
ENDCHAR
STARTCHAR Tcommaaccent
ENCODING 354
SWIDTH 578 0
DWIDTH 5 0
BBX 5 8 0 -2
BITMAP
AA40
6E40
1C00
1C00
1C00
1C00
0400
0800
ENDCHAR
STARTCHAR tcommaaccent
ENCODING 355
SWIDTH 437 0
DWIDTH 4 0
BBX 4 8 0 -2
BITMAP
60
64
FD
60
70
2D
10
10
ENDCHAR
STARTCHAR Tcaron
ENCODING 356
SWIDTH 578 0
DWIDTH 5 0
BBX 5 8 0 0
BITMAP
1400
1800
AA40
6E40
1C00
1C00
1C00
1C00
ENDCHAR
STARTCHAR tcaron
ENCODING 357
SWIDTH 570 0
DWIDTH 5 0
BBX 5 6 0 0
BITMAP
6140
6540
FD00
6000
7000
2D00
ENDCHAR
STARTCHAR Tbar
ENCODING 358
SWIDTH 578 0
DWIDTH 5 0
BBX 5 6 0 0
BITMAP
AA40
6E40
1C00
2D00
1C00
1C00
ENDCHAR
STARTCHAR tbar
ENCODING 359
SWIDTH 437 0
DWIDTH 4 0
BBX 4 6 0 0
BITMAP
60
64
FD
B4
74
2D
ENDCHAR
STARTCHAR Utilde
ENCODING 360
SWIDTH 673 0
DWIDTH 5 0
BBX 5 8 0 0
BITMAP
0500
1A00
5080
A1C0
A1C0
A1C0
7680
2E00
ENDCHAR
STARTCHAR utilde
ENCODING 361
SWIDTH 562 0
DWIDTH 5 0
BBX 4 6 0 0
BITMAP
15
29
93
93
A3
3E
ENDCHAR
STARTCHAR Umacron
ENCODING 362
SWIDTH 673 0
DWIDTH 5 0
BBX 5 7 0 0
BITMAP
1900
5080
A1C0
A1C0
A1C0
7680
2E00
ENDCHAR
STARTCHAR umacron
ENCODING 363
SWIDTH 562 0
DWIDTH 5 0
BBX 4 5 0 0
BITMAP
29
93
93
A3
3E
ENDCHAR
STARTCHAR Ubreve
ENCODING 364
SWIDTH 673 0
DWIDTH 5 0
BBX 5 8 0 0
BITMAP
0500
0900
5080
A1C0
A1C0
A1C0
7680
2E00
ENDCHAR
STARTCHAR ubreve
ENCODING 365
SWIDTH 562 0
DWIDTH 5 0
BBX 4 6 0 0
BITMAP
14
19
93
93
A3
3E
ENDCHAR
STARTCHAR Uring
ENCODING 366
SWIDTH 673 0
DWIDTH 5 0
BBX 5 8 0 0
BITMAP
0900
0900
5080
A1C0
A1C0
A1C0
7680
2E00
ENDCHAR
STARTCHAR uring
ENCODING 367
SWIDTH 562 0
DWIDTH 5 0
BBX 4 6 0 0
BITMAP
14
19
93
93
A3
3E
ENDCHAR
STARTCHAR Uhungarumlaut
ENCODING 368
SWIDTH 673 0
DWIDTH 5 0
BBX 5 8 0 0
BITMAP
0940
1600
5080
A1C0
A1C0
A1C0
7680
2E00
ENDCHAR
STARTCHAR uhungarumlaut
ENCODING 369
SWIDTH 562 0
DWIDTH 5 0
BBX 4 6 0 0
BITMAP
1A
26
93
93
A3
3E
ENDCHAR
STARTCHAR Uogonek
ENCODING 370
SWIDTH 673 0
DWIDTH 5 0
BBX 5 8 0 -2
BITMAP
5080
A1C0
A1C0
A1C0
7680
2E40
0800
0400
ENDCHAR
STARTCHAR uogonek
ENCODING 371
SWIDTH 562 0
DWIDTH 5 0
BBX 5 7 0 -2
BITMAP
0100
9300
9300
A300
3E00
0240
0140
ENDCHAR
STARTCHAR Wcircumflex
ENCODING 372
SWIDTH 819 0
DWIDTH 7 0
BBX 6 8 0 0
BITMAP
0100
0600
5620
A730
A730
A730
6770
3EE0
ENDCHAR
STARTCHAR wcircumflex
ENCODING 373
SWIDTH 756 0
DWIDTH 6 0
BBX 6 6 0 0
BITMAP
0100
0A00
9A60
9A60
9A60
7FD0
ENDCHAR
STARTCHAR Ycircumflex
ENCODING 374
SWIDTH 620 0
DWIDTH 5 0
BBX 5 8 0 0
BITMAP
0400
1900
5140
9180
A280
7F40
0C00
0C00
ENDCHAR
STARTCHAR ycircumflex
ENCODING 375
SWIDTH 562 0
DWIDTH 5 0
BBX 4 8 0 -2
BITMAP
04
29
93
93
A3
3F
1A
14
ENDCHAR
STARTCHAR Ydieresis
ENCODING 376
SWIDTH 620 0
DWIDTH 5 0
BBX 5 7 0 0
BITMAP
1500
5140
9180
A280
7F40
0C00
0C00
ENDCHAR
STARTCHAR Zacute
ENCODING 377
SWIDTH 586 0
DWIDTH 5 0
BBX 5 8 0 0
BITMAP
0100
0900
6A40
6B00
0D00
1C00
3400
BF80
ENDCHAR
STARTCHAR zacute
ENCODING 378
SWIDTH 481 0
DWIDTH 4 0
BBX 4 7 0 0
BITMAP
04
18
14
BD
18
34
BE
ENDCHAR
STARTCHAR Zdotaccent
ENCODING 379
SWIDTH 586 0
DWIDTH 5 0
BBX 5 8 0 0
BITMAP
0400
0800
6A40
6B00
0D00
1C00
3400
BF80
ENDCHAR
STARTCHAR zdotaccent
ENCODING 380
SWIDTH 481 0
DWIDTH 4 0
BBX 4 5 0 0
BITMAP
24
BD
18
34
BE
ENDCHAR
STARTCHAR Zcaron
ENCODING 381
SWIDTH 586 0
DWIDTH 5 0
BBX 5 8 0 0
BITMAP
1400
1800
6A40
6B00
0D00
1C00
3400
BF80
ENDCHAR
STARTCHAR zcaron
ENCODING 382
SWIDTH 481 0
DWIDTH 4 0
BBX 4 6 0 0
BITMAP
14
28
BD
18
34
BE
ENDCHAR
STARTCHAR AEacute
ENCODING 508
SWIDTH 988 0
DWIDTH 8 0
BBX 8 8 0 0
BITMAP
0010
0090
1AA9
7AE9
A1D4
A5E8
BFC0
A1FE
ENDCHAR
STARTCHAR aeacute
ENCODING 509
SWIDTH 976 0
DWIDTH 8 0
BBX 8 7 0 0
BITMAP
0040
0090
0414
7BFD
92DC
A3F4
7EBD
ENDCHAR
STARTCHAR Oslashacute
ENCODING 510
SWIDTH 777 0
DWIDTH 6 0
BBX 6 8 0 0
BITMAP
0100
0240
1A90
7AD0
A270
9970
78A0
3F80
ENDCHAR
STARTCHAR oslashacute
ENCODING 511
SWIDTH 579 0
DWIDTH 5 0
BBX 5 7 0 0
BITMAP
0100
0900
0500
7F00
9B40
B640
7E00
ENDCHAR
STARTCHAR dotlessj
ENCODING 567
SWIDTH 237 0
DWIDTH 2 0
BBX 3 6 -1 -2
BITMAP
28
28
28
24
B4
90
ENDCHAR
STARTCHAR circumflex
ENCODING 710
SWIDTH 267 0
DWIDTH 2 0
BBX 2 2 0 4
BITMAP
10
A0
ENDCHAR
STARTCHAR caron
ENCODING 711
SWIDTH 267 0
DWIDTH 2 0
BBX 2 2 0 4
BITMAP
50
60
ENDCHAR
STARTCHAR breve
ENCODING 728
SWIDTH 220 0
DWIDTH 2 0
BBX 2 2 0 4
BITMAP
50
90
ENDCHAR
STARTCHAR dotaccent
ENCODING 729
SWIDTH 125 0
DWIDTH 1 0
BBX 1 2 0 4
BITMAP
40
80
ENDCHAR
STARTCHAR ring
ENCODING 730
SWIDTH 192 0
DWIDTH 2 0
BBX 2 2 0 4
BITMAP
50
90
ENDCHAR
STARTCHAR ogonek
ENCODING 731
SWIDTH 212 0
DWIDTH 2 0
BBX 2 2 0 -2
BITMAP
90
40
ENDCHAR
STARTCHAR tilde
ENCODING 732
SWIDTH 321 0
DWIDTH 3 0
BBX 3 2 0 4
BITMAP
54
A4
ENDCHAR
STARTCHAR hungarumlaut
ENCODING 733
SWIDTH 384 0
DWIDTH 3 0
BBX 3 2 0 4
BITMAP
58
94
ENDCHAR
STARTCHAR uni0312
ENCODING 786
SWIDTH 192 0
DWIDTH 2 0
BBX 1 2 0 4
BITMAP
40
40
ENDCHAR
STARTCHAR uni0315
ENCODING 789
SWIDTH 132 0
DWIDTH 1 0
BBX 1 2 0 4
BITMAP
40
80
ENDCHAR
STARTCHAR uni0326
ENCODING 806
SWIDTH 193 0
DWIDTH 2 0
BBX 2 2 0 -2
BITMAP
40
50
ENDCHAR
STARTCHAR pi
ENCODING 960
SWIDTH 555 0
DWIDTH 4 0
BBX 5 5 0 0
BITMAP
1500
BF40
7600
7600
7600
ENDCHAR
STARTCHAR Wgrave
ENCODING 7808
SWIDTH 819 0
DWIDTH 7 0
BBX 6 8 0 0
BITMAP
0400
0900
5620
A730
A730
A730
6770
3EE0
ENDCHAR
STARTCHAR wgrave
ENCODING 7809
SWIDTH 756 0
DWIDTH 6 0
BBX 6 7 0 0
BITMAP
0400
1800
0000
9A60
9A60
9A60
7FD0
ENDCHAR
STARTCHAR Wacute
ENCODING 7810
SWIDTH 819 0
DWIDTH 7 0
BBX 6 8 0 0
BITMAP
0040
0240
5620
A730
A730
A730
6770
3EE0
ENDCHAR
STARTCHAR wacute
ENCODING 7811
SWIDTH 756 0
DWIDTH 6 0
BBX 6 7 0 0
BITMAP
0100
0240
0000
9A60
9A60
9A60
7FD0
ENDCHAR
STARTCHAR Wdieresis
ENCODING 7812
SWIDTH 819 0
DWIDTH 7 0
BBX 6 7 0 0
BITMAP
0940
5620
A730
A730
A730
6770
3EE0
ENDCHAR
STARTCHAR wdieresis
ENCODING 7813
SWIDTH 756 0
DWIDTH 6 0
BBX 6 5 0 0
BITMAP
0A40
9A60
9A60
9A60
7FD0
ENDCHAR
STARTCHAR Ygrave
ENCODING 7922
SWIDTH 620 0
DWIDTH 5 0
BBX 5 8 0 0
BITMAP
1000
2400
5140
9180
A280
7F40
0C00
0C00
ENDCHAR
STARTCHAR ygrave
ENCODING 7923
SWIDTH 562 0
DWIDTH 5 0
BBX 4 9 0 -2
BITMAP
10
20
01
93
93
A3
3F
1A
14
ENDCHAR
STARTCHAR endash
ENCODING 8211
SWIDTH 418 0
DWIDTH 3 0
BBX 3 2 0 2
BITMAP
54
68
ENDCHAR
STARTCHAR emdash
ENCODING 8212
SWIDTH 719 0
DWIDTH 6 0
BBX 6 2 0 2
BITMAP
5540
6A90
ENDCHAR
STARTCHAR quoteleft
ENCODING 8216
SWIDTH 246 0
DWIDTH 2 0
BBX 2 3 0 3
BITMAP
40
90
50
ENDCHAR
STARTCHAR quoteright
ENCODING 8217
SWIDTH 245 0
DWIDTH 2 0
BBX 2 2 0 4
BITMAP
50
60
ENDCHAR
STARTCHAR quotesinglbase
ENCODING 8218
SWIDTH 264 0
DWIDTH 2 0
BBX 2 2 0 -1
BITMAP
A0
50
ENDCHAR
STARTCHAR quotedblleft
ENCODING 8220
SWIDTH 445 0
DWIDTH 4 0
BBX 3 3 0 3
BITMAP
44
AC
54
ENDCHAR
STARTCHAR quotedblright
ENCODING 8221
SWIDTH 444 0
DWIDTH 4 0
BBX 3 3 0 3
BITMAP
58
6C
04
ENDCHAR
STARTCHAR quotedblbase
ENCODING 8222
SWIDTH 463 0
DWIDTH 4 0
BBX 4 2 0 -1
BITMAP
AD
58
ENDCHAR
STARTCHAR dagger
ENCODING 8224
SWIDTH 434 0
DWIDTH 3 0
BBX 4 8 0 -1
BITMAP
10
24
BD
34
24
24
24
24
ENDCHAR
STARTCHAR daggerdbl
ENCODING 8225
SWIDTH 452 0
DWIDTH 4 0
BBX 4 8 0 -1
BITMAP
10
24
BD
24
24
BD
68
24
ENDCHAR
STARTCHAR bullet
ENCODING 8226
SWIDTH 354 0
DWIDTH 3 0
BBX 2 2 0 2
BITMAP
20
70
ENDCHAR
STARTCHAR ellipsis
ENCODING 8230
SWIDTH 789 0
DWIDTH 6 0
BBX 6 2 0 -1
BITMAP
A670
0010
ENDCHAR
STARTCHAR perthousand
ENCODING 8240
SWIDTH 998 0
DWIDTH 8 0
BBX 8 6 0 0
BITMAP
6140
9A00
6A00
0A99
1AA6
229D
ENDCHAR
STARTCHAR guilsinglleft
ENCODING 8249
SWIDTH 403 0
DWIDTH 3 0
BBX 3 4 0 0
BITMAP
18
70
74
18
ENDCHAR
STARTCHAR guilsinglright
ENCODING 8250
SWIDTH 402 0
DWIDTH 3 0
BBX 3 4 0 0
BITMAP
60
28
28
50
ENDCHAR
STARTCHAR fraction
ENCODING 8260
SWIDTH 477 0
DWIDTH 4 0
BBX 4 6 0 0
BITMAP
01
09
08
24
60
80
ENDCHAR
STARTCHAR Euro
ENCODING 8364
SWIDTH 806 0
DWIDTH 6 0
BBX 6 6 0 0
BITMAP
0290
0EA0
7F00
7900
6D10
07E0
ENDCHAR
STARTCHAR trademark
ENCODING 8482
SWIDTH 606 0
DWIDTH 5 0
BBX 5 3 0 3
BITMAP
5500
1540
0100
ENDCHAR
STARTCHAR partialdiff
ENCODING 8706
SWIDTH 609 0
DWIDTH 5 0
BBX 5 6 0 0
BITMAP
0D00
0B00
7B40
9280
A240
2E00
ENDCHAR
STARTCHAR product
ENCODING 8719
SWIDTH 632 0
DWIDTH 5 0
BBX 5 6 0 0
BITMAP
6A40
7B40
3700
3700
3700
3700
ENDCHAR
STARTCHAR minus
ENCODING 8722
SWIDTH 543 0
DWIDTH 4 0
BBX 4 2 0 2
BITMAP
55
6A
ENDCHAR
STARTCHAR infinity
ENCODING 8734
SWIDTH 771 0
DWIDTH 6 0
BBX 6 4 0 1
BITMAP
1540
7FA0
9660
7FD0
ENDCHAR
STARTCHAR approxequal
ENCODING 8776
SWIDTH 476 0
DWIDTH 4 0
BBX 4 4 0 1
BITMAP
14
6D
65
68
ENDCHAR
STARTCHAR notequal
ENCODING 8800
SWIDTH 512 0
DWIDTH 4 0
BBX 4 5 0 0
BITMAP
09
BE
69
79
20
ENDCHAR
STARTCHAR fi
ENCODING 64257
SWIDTH 650 0
DWIDTH 5 0
BBX 5 7 0 0
BITMAP
0400
2EC0
7540
BF80
6180
6180
6180
ENDCHAR
STARTCHAR fl
ENCODING 64258
SWIDTH 631 0
DWIDTH 5 0
BBX 5 7 0 0
BITMAP
0500
2F80
7580
BD80
6180
6180
6180
ENDCHAR
STARTCHAR .notdef
ENCODING -1
SWIDTH 279 0
DWIDTH 2 0
BBX 1 1 0 0
BITMAP
00
ENDCHAR
STARTCHAR .null
ENCODING -1
SWIDTH 0 0
DWIDTH 0 0
BBX 1 1 0 0
BITMAP
00
ENDCHAR
STARTCHAR nonmarkingreturn
ENCODING -1
SWIDTH 279 0
DWIDTH 2 0
BBX 1 1 0 0
BITMAP
00
ENDCHAR
ENDFONT
